HIERARCHY
ROOT Hips
{
	OFFSET 0.000000 0.000000 0.000000
	CHANNELS 6 Xposition Yposition Zposition Yrotation Xrotation Zrotation
	JOINT Chest
	{
		OFFSET 0.000000 -0.009281 11.569106
		CHANNELS 3 Yrotation Xrotation Zrotation
		JOINT Chest2
		{
			OFFSET -0.000000 0.016865 9.269641
			CHANNELS 3 Yrotation Xrotation Zrotation
			JOINT Chest3
			{
				OFFSET -0.000000 0.000001 8.374491
				CHANNELS 3 Yrotation Xrotation Zrotation
				JOINT Chest4
				{
					OFFSET -0.000000 0.000001 8.374493
					CHANNELS 3 Yrotation Xrotation Zrotation
					JOINT Neck
					{
						OFFSET -0.000000 0.000002 12.152554
						CHANNELS 3 Yrotation Xrotation Zrotation
						JOINT Head
						{
							OFFSET -0.000000 0.040101 7.802319
							CHANNELS 3 Yrotation Xrotation Zrotation
							End Site
							{
								OFFSET -0.000000 0.020947 14.853096
							}
						}
					}
					JOINT RightCollar
					{
						OFFSET 2.894404 0.000001 6.791374
						CHANNELS 3 Yrotation Xrotation Zrotation
						JOINT RightShoulder
						{
							OFFSET 13.574684 0.000001 0.000000
							CHANNELS 3 Yrotation Xrotation Zrotation
							JOINT RightElbow
							{
								OFFSET 23.923903 0.000002 0.000000
								CHANNELS 3 Yrotation Xrotation Zrotation
								JOINT RightWrist
								{
									OFFSET 19.846718 0.012767 0.000000
									CHANNELS 3 Yrotation Xrotation Zrotation
									End Site
									{
										OFFSET 14.973145 0.000001 0.000000
									}
								}
							}
						}
					}
					JOINT LeftCollar
					{
						OFFSET -2.894404 0.000001 6.791374
						CHANNELS 3 Yrotation Xrotation Zrotation
						JOINT LeftShoulder
						{
							OFFSET -13.574684 -0.000001 0.000000
							CHANNELS 3 Yrotation Xrotation Zrotation
							JOINT LeftElbow
							{
								OFFSET -23.923903 -0.000002 0.000000
								CHANNELS 3 Yrotation Xrotation Zrotation
								JOINT LeftWrist
								{
									OFFSET -19.846718 0.012763 0.000000
									CHANNELS 3 Yrotation Xrotation Zrotation
									End Site
									{
										OFFSET -14.973145 -0.000001 0.000000
									}
								}
							}
						}
					}
				}
			}
		}
	}
	JOINT RightHip
	{
		OFFSET 9.469263 0.004643 0.045487
		CHANNELS 3 Yrotation Xrotation Zrotation
		JOINT RightKnee
		{
			OFFSET 0.000000 0.002661 -40.478676
			CHANNELS 3 Yrotation Xrotation Zrotation
			JOINT RightAnkle
			{
				OFFSET 0.000000 0.049106 -35.224068
				CHANNELS 3 Yrotation Xrotation Zrotation
				JOINT RightToe
				{
					OFFSET -0.000001 12.539529 -6.151390
					CHANNELS 3 Yrotation Xrotation Zrotation
					End Site
					{
						OFFSET -0.000001 5.044994 -1.291870
					}
				}
			}
		}
	}
	JOINT LeftHip
	{
		OFFSET -9.469263 0.004641 0.045487
		CHANNELS 3 Yrotation Xrotation Zrotation
		JOINT LeftKnee
		{
			OFFSET 0.000000 0.002661 -40.478676
			CHANNELS 3 Yrotation Xrotation Zrotation
			JOINT LeftAnkle
			{
				OFFSET 0.000000 0.049106 -35.224068
				CHANNELS 3 Yrotation Xrotation Zrotation
				JOINT LeftToe
				{
					OFFSET -0.000001 12.539529 -6.151390
					CHANNELS 3 Yrotation Xrotation Zrotation
					End Site
					{
						OFFSET -0.000001 5.044994 -1.291870
					}
				}
			}
		}
	}
}
MOTION
Frames: 15
Frame Time: 0.016667
11.226677 3.568354 82.879234 -8.570722 -4.265431 -113.526056 0.241998 -4.470286 1.309454 0.116377 -1.981771 0.567735 0.116377 -1.981771 0.567737 0.089116 -1.486222 0.426138 1.781294 -22.956020 -2.157865 2.632342 -6.431888 -3.411531 4.587838 -0.570252 -0.719881 69.595263 -19.022620 40.214771 -8.922817 -33.030409 39.192882 -36.618567 26.362399 61.023130 -10.315645 -2.576305 -10.675553 -73.053688 1.601340 -39.765395 -24.585148 24.784202 -24.095442 9.602729 31.108544 -13.097805 -0.210088 -11.905041 -1.019445 0.856152 -4.018819 -1.410945 0.243287 6.367350 4.235060 0.080654 0.001502 -0.009967 0.481674 -12.585100 1.141051 0.286113 -3.490479 4.216506 -0.499096 6.667103 -1.656040 -0.077343 -0.075207 0.011511 
11.171253 3.564670 82.876472 -8.673715 -4.306576 -113.549381 0.250802 -4.568251 1.284964 0.120721 -2.025186 0.556243 0.120721 -2.025186 0.556245 0.092375 -1.518782 0.417542 1.899841 -23.082954 -2.520419 2.751598 -6.665025 -4.034142 4.659827 -0.630910 -0.461320 69.502297 -19.272887 40.263091 -9.318500 -33.315023 37.286501 -36.856442 26.368096 60.817609 -10.358928 -2.529041 -10.647979 -72.787912 1.055217 -39.712666 -22.906884 24.355418 -22.515452 13.528586 32.205435 -15.238307 -0.205196 -11.846770 -1.011815 0.871772 -4.290234 -1.336167 0.172645 6.463244 4.157765 0.088910 0.006584 -0.007227 0.487860 -12.549095 1.129923 0.288944 -3.737653 4.218646 -0.488322 6.777636 -1.610804 -0.086793 -0.076195 0.009081 
11.118777 3.560013 82.873039 -8.779354 -4.348489 -113.571368 0.266609 -4.669732 1.265342 0.127996 -2.069647 0.547409 0.127996 -2.069647 0.547410 0.097841 -1.552123 0.410945 2.028000 -23.210632 -2.926233 2.877796 -6.899638 -4.731916 4.703261 -0.664214 -0.233857 69.403123 -19.489596 40.355654 -9.499288 -33.605040 35.209833 -37.043961 26.279206 60.561518 -10.413408 -2.487527 -10.617889 -72.606550 0.270471 -39.717854 -21.055409 24.097577 -20.946513 17.627251 32.925446 -17.187037 -0.203771 -11.792565 -1.030364 0.886399 -4.567056 -1.253506 0.110629 6.565262 4.120955 0.092259 0.010602 -0.003988 0.492316 -12.515221 1.114689 0.292879 -3.991164 4.225111 -0.476067 6.894644 -1.582204 -0.096228 -0.077437 0.005967 
11.070192 3.560237 82.868484 -8.883715 -4.390828 -113.587118 0.287486 -4.760571 1.225540 0.138285 -2.109596 0.530187 0.138285 -2.109596 0.530191 0.105533 -1.582078 0.398073 2.150767 -23.348522 -3.345331 2.992313 -7.153754 -5.454896 4.725270 -0.767738 0.038149 69.242006 -19.737003 40.506338 -9.601695 -33.789745 33.039548 -37.318750 26.145836 60.249024 -10.507466 -2.461913 -10.542731 -72.514650 -0.601510 -39.763500 -19.188078 23.959614 -19.380867 21.841987 33.427533 -18.843449 -0.201864 -11.739611 -1.073743 0.901575 -4.840436 -1.149377 0.048841 6.668840 4.044539 0.094076 0.011281 -0.002400 0.492616 -12.477130 1.099323 0.299566 -4.251962 4.238560 -0.457983 7.016998 -1.557558 -0.107142 -0.079211 0.002577 
11.021938 3.566078 82.863419 -8.992945 -4.430348 -113.586271 0.298621 -4.852750 1.180352 0.143942 -2.150708 0.509738 0.143942 -2.150709 0.509740 0.109738 -1.612912 0.382765 2.290086 -23.485993 -3.788327 3.131717 -7.407157 -6.216297 4.752712 -0.857532 0.287271 69.056068 -20.160893 40.624336 -9.887242 -33.838110 30.896692 -37.736648 26.043750 59.923012 -10.588187 -2.459466 -10.489218 -72.524390 -1.380961 -39.848475 -17.380566 23.893182 -17.758282 25.907191 34.351958 -20.265612 -0.214418 -11.690055 -1.129319 0.927628 -5.117296 -1.036524 -0.016385 6.774777 3.972254 0.098628 0.012859 -0.001204 0.484769 -12.430204 1.083926 0.315020 -4.530749 4.240955 -0.441299 7.145831 -1.543965 -0.116249 -0.081039 -0.000288 
10.972933 3.575765 82.858673 -9.097647 -4.465795 -113.574858 0.295455 -4.949551 1.146625 0.142876 -2.194108 0.494260 0.142876 -2.194108 0.494258 0.108919 -1.645466 0.371161 2.460187 -23.611470 -4.265042 3.318669 -7.637856 -7.030048 4.785820 -0.952160 0.477742 68.918064 -20.752186 40.725679 -10.418426 -33.806117 28.774897 -38.295986 25.939824 59.547092 -10.634406 -2.439093 -10.459887 -72.558589 -2.141561 -39.935594 -15.630808 23.900048 -16.090344 29.502842 35.799521 -21.512786 -0.227077 -11.634198 -1.168567 0.955866 -5.392999 -0.943790 -0.085221 6.875865 3.906843 0.104389 0.017295 0.000476 0.472517 -12.375063 1.074548 0.331978 -4.808496 4.232308 -0.421090 7.269482 -1.517284 -0.123156 -0.080808 -0.002326 
10.924100 3.586649 82.854385 -9.202203 -4.501750 -113.551424 0.291156 -5.062802 1.118594 0.141366 -2.244517 0.480480 0.141366 -2.244517 0.480478 0.107777 -1.683278 0.360833 2.645674 -23.717919 -4.763137 3.528287 -7.833093 -7.878009 4.835232 -1.039632 0.689163 68.853484 -21.295348 40.833955 -10.868588 -33.754645 26.497615 -38.960639 25.803734 59.127780 -10.656335 -2.369463 -10.424325 -72.565303 -3.082929 -39.998605 -13.858952 24.059963 -14.488361 32.610902 37.167065 -22.535412 -0.232494 -11.578298 -1.212960 0.970990 -5.671988 -0.870300 -0.144476 6.977399 3.863418 0.110026 0.023761 0.003788 0.464693 -12.323635 1.070961 0.348475 -5.075168 4.211541 -0.401034 7.384903 -1.491574 -0.128331 -0.080073 -0.004514 
10.879097 3.598175 82.849998 -9.312848 -4.533540 -113.514691 0.305104 -5.185773 1.077704 0.147158 -2.298801 0.461017 0.147158 -2.298802 0.461023 0.112089 -1.723992 0.346276 2.814107 -23.813385 -5.260815 3.708100 -8.008924 -8.729450 4.862116 -1.089285 0.944707 68.818848 -21.655326 40.915920 -10.952780 -33.726245 24.051294 -39.709969 25.645004 58.641928 -10.703665 -2.279374 -10.395228 -72.533283 -4.238960 -40.000012 -12.042265 24.339376 -13.076664 35.443204 37.877162 -23.223634 -0.238762 -11.535211 -1.262615 0.981470 -5.939639 -0.810751 -0.200944 7.078514 3.817136 0.115199 0.028066 0.006312 0.459571 -12.283913 1.062948 0.350766 -5.325580 4.181669 -0.374447 7.490937 -1.479156 -0.130066 -0.078188 -0.005344 
10.838297 3.611317 82.844955 -9.422915 -4.560420 -113.462665 0.334641 -5.297983 1.014675 0.159740 -2.348423 0.432499 0.159739 -2.348424 0.432497 0.121451 -1.761205 0.324943 2.950201 -23.910769 -5.733669 3.837475 -8.189952 -9.544475 4.837956 -1.167098 1.191254 68.742630 -21.955867 41.056687 -10.789341 -33.610801 21.525544 -40.359526 25.495281 58.177939 -10.776203 -2.241178 -10.352833 -72.543494 -5.440286 -39.976110 -10.323085 24.603304 -11.807578 38.078831 37.998275 -23.724317 -0.251036 -11.499654 -1.324692 0.999489 -6.190694 -0.745456 -0.262955 7.177017 3.756511 0.121104 0.028716 0.008073 0.450887 -12.245563 1.043846 0.352589 -5.569161 4.144622 -0.346207 7.594721 -1.456856 -0.129516 -0.076994 -0.006163 
10.803711 3.629460 82.839485 -9.524142 -4.580137 -113.398462 0.363037 -5.401654 0.947856 0.171876 -2.394144 0.402278 0.171876 -2.394144 0.402277 0.130465 -1.795496 0.302340 3.073904 -24.001068 -6.186606 3.950409 -8.358726 -10.326733 4.790900 -1.263492 1.398343 68.659814 -22.350524 41.184975 -10.768603 -33.366311 19.098580 -40.840256 25.342705 57.843574 -10.841776 -2.214370 -10.308484 -72.622977 -6.530229 -39.953653 -8.766466 24.648351 -10.553799 40.373696 37.971095 -24.135102 -0.271667 -11.460706 -1.384196 1.025329 -6.432615 -0.692560 -0.323440 7.275095 3.688475 0.125633 0.028105 0.009027 0.437288 -12.203262 1.018409 0.356511 -5.799795 4.119045 -0.321362 7.692981 -1.461762 -0.125733 -0.076227 -0.008793 
10.768932 3.652280 82.833923 -9.609835 -4.595053 -113.327954 0.393287 -5.499541 0.879997 0.184364 -2.437520 0.370032 0.184364 -2.437521 0.370032 0.139730 -1.828031 0.278219 3.190132 -24.073756 -6.612290 4.056678 -8.495277 -11.061757 4.723013 -1.358597 1.574655 68.538592 -22.881400 41.260934 -10.988434 -33.057870 16.825257 -41.309186 25.292694 57.606731 -10.895953 -2.134485 -10.207539 -72.699133 -7.557171 -39.891013 -7.387327 24.403919 -9.305011 42.189775 38.161507 -24.381950 -0.296036 -11.408878 -1.437959 1.056590 -6.682532 -0.666850 -0.380604 7.383375 3.628032 0.130516 0.028702 0.011024 0.422306 -12.139753 1.001829 0.365105 -6.036612 4.094105 -0.301191 7.791414 -1.488169 -0.119601 -0.075075 -0.011179 
10.738737 3.679409 82.828644 -9.689554 -4.606223 -113.250800 0.432411 -5.590363 0.804916 0.200445 -2.477845 0.334751 0.200445 -2.477846 0.334752 0.151669 -1.858275 0.251836 3.293789 -24.133264 -7.005746 4.148381 -8.607965 -11.741972 4.649392 -1.440265 1.765512 68.367421 -23.418232 41.317269 -11.210423 -32.753312 14.579373 -41.769721 25.288950 57.405063 -10.961333 -2.006867 -10.073038 -72.748290 -8.629402 -39.735592 -6.206845 23.823486 -8.236932 44.100308 38.568012 -24.188770 -0.322383 -11.347154 -1.496561 1.086677 -6.932760 -0.651950 -0.432975 7.486924 3.571968 0.134288 0.031106 0.012287 0.404082 -12.072443 0.990741 0.371033 -6.269844 4.067311 -0.279886 7.889531 -1.498767 -0.110638 -0.074042 -0.012773 
10.709362 3.708004 82.823151 -9.763948 -4.614982 -113.170757 0.490398 -5.679673 0.724021 0.224413 -2.516818 0.295966 0.224413 -2.516819 0.295969 0.169502 -1.887506 0.222860 3.380521 -24.180065 -7.368147 4.217196 -8.697958 -12.370642 4.559157 -1.521388 1.977465 68.140283 -23.831987 41.397322 -11.330700 -32.543741 12.390330 -42.115001 25.165950 57.156625 -11.037652 -1.897847 -9.906424 -72.833743 -9.773832 -39.538589 -5.206920 23.122583 -7.416651 46.160894 39.018866 -23.989694 -0.353742 -11.290272 -1.555512 1.118525 -7.175967 -0.642506 -0.480066 7.596720 3.537247 0.137212 0.030651 0.015641 0.391832 -11.995194 0.981793 0.371084 -6.502871 4.035515 -0.259349 7.989833 -1.523607 -0.101778 -0.079683 -0.014009 
10.683743 3.739985 82.816460 -9.831203 -4.617055 -113.076712 0.557235 -5.765834 0.639107 0.252376 -2.554721 0.256513 0.252376 -2.554721 0.256514 0.190324 -1.915935 0.193413 3.454991 -24.219391 -7.703464 4.270694 -8.774693 -12.953724 4.474815 -1.586970 2.198589 67.821839 -24.025774 41.532137 -11.218358 -32.451912 10.287787 -42.320784 24.878628 56.822092 -11.104800 -1.838922 -9.751575 -73.005501 -10.888888 -39.337430 -4.443748 22.448513 -6.857608 47.841654 39.495709 -23.942627 -0.382436 -11.230196 -1.601765 1.148757 -7.403038 -0.634981 -0.526252 7.695122 3.452520 0.137752 0.031503 0.016506 0.370953 -11.913372 0.962063 0.374422 -6.734114 3.989791 -0.233814 8.087566 -1.526266 -0.093160 -0.079837 -0.014320 
10.658791 3.773587 82.809151 -9.891062 -4.618099 -112.969601 0.630186 -5.851540 0.547754 0.283572 -2.592680 0.214294 0.283572 -2.592679 0.214296 0.213552 -1.944411 0.161897 3.518553 -24.252740 -8.012270 4.311147 -8.840869 -13.491927 4.363350 -1.627902 2.391799 67.476491 -24.146833 41.661357 -11.095845 -32.412441 8.378900 -42.458324 24.493306 56.513098 -11.196345 -1.766067 -9.602678 -73.261688 -11.869038 -39.103666 -3.986366 21.779226 -6.522902 48.959117 39.837085 -23.958022 -0.410016 -11.177958 -1.645194 1.178338 -7.601770 -0.633269 -0.568813 7.781039 3.380372 0.139655 0.031631 0.018858 0.354241 -11.820787 0.929973 0.380547 -6.968464 3.940675 -0.210179 8.185901 -1.534643 -0.086069 -0.081746 -0.015808 
